# xmcd
#
# Track frame offsets: 
#        150
#        12607
#        25579
#        38903
#        52101
#        65007
#        79879
#        94080
#        107223
#        122490
#        135683
#        148804
#        161402
#        175015
#        189780
#        204466
#        217472
#        231506
#        245674
#        259723
#        272941
#        287966
#        301428
#        315021
#        329348
#
# Disc length: 4585 seconds
#
# Revision: 1
# Processed by: cddbd v1.5.2PL0 Copyright (c) Steve Scherf et al.
# Submitted via: ExactAudioCopy v0.99pb5
#
DISCID=7a11e719
DTITLE=Sam Manning - Vol. 2
DYEAR=1927
DGENRE=Jazz
TTITLE0=Bongo
TTITLE1=Pepper Pot
TTITLE2=Lignum Vitae
TTITLE3=Emily
TTITLE4=Bouncing Baby Boy
TTITLE5=Woman's Sweeter Than Man
TTITLE6=Nothin' But A Double Barrel Shotgun's Gonna Keep Me Away From 
TTITLE6=You
TTITLE7=Goin' Back To Jamaica
TTITLE8=The American Woman And West Indian Man, Part 1
TTITLE9=The American Woman And West Indian Man, Part 2
TTITLE10=Sweetie Charlie
TTITLE11=Lita
TTITLE12=Lieutenant Julian
TTITLE13=You Can't Get Anything Out Of Me
TTITLE14=Barbadoes Blues
TTITLE15=Lita
TTITLE16=Talking To Myself
TTITLE17=I'm Going Your Way
TTITLE18=Caribbean Moonlight
TTITLE19=B.G. Blues
TTITLE20=Back To My West Indian Home
TTITLE21=Femme Martinique
TTITLE22=Bacchanale
TTITLE23=Land Of Humming Birds
TTITLE24=Sinking Of The Kate Esau
EXTD=YEAR: 1927
EXTT0=
EXTT1=
EXTT2=
EXTT3=
EXTT4=
EXTT5=
EXTT6=
EXTT7=
EXTT8=
EXTT9=
EXTT10=
EXTT11=
EXTT12=
EXTT13=
EXTT14=
EXTT15=
EXTT16=
EXTT17=
EXTT18=
EXTT19=
EXTT20=
EXTT21=
EXTT22=
EXTT23=
EXTT24=
PLAYORDER=
